<svg id="Calque_1" data-name="Calque 1" xmlns="http://www.w3.org/2000/svg" viewBox="0 0 633.62 275.35"><g id="Calque_2" data-name="Calque 2"><g id="Calque_1-2" data-name="Calque 1-2"><g id="Calque_2-2" data-name="Calque 2-2"><g id="Calque_1-2-2" data-name="Calque 1-2-2"><path d="M0,252.93c.66-.58,1.21-1.15,1.83-1.6q10.29-7.47,20.59-14.9c2.31-1.67,2.39-1.69,4.36.27A30.49,30.49,0,0,0,42.69,245a27.11,27.11,0,0,0,18.16-2.57c10.95-5.62,17.15-14.58,18.05-27,.11-1.44.08-2.88.08-4.32v-118c0-5.93.42-5.44-5.39-5.44H41.45c-1.17,0-1.66-.77-1.69-1.87V59.46c.06-1.06.46-1.83,1.69-1.84H106.2a17.33,17.33,0,0,1,1.91.07,1.2,1.2,0,0,1,1.24,1.16h0c.07,1.11.1,2.23.1,3.35V212.36c0,14.58-3.94,27.76-12.86,39.31-10.39,13.45-24.15,21-41,23.14A62.48,62.48,0,0,1,18,268,58.1,58.1,0,0,1,0,252.93Z" transform="translate(0 0)" fill="#fff"/><path d="M483.68,112c-1.91.58-2.32,1.91-3,2.88q-15.56,21.32-31,42.68c-.66.9-1.31,1.81-2,2.68-.27.33-.66.88-1.15.44a2.43,2.43,0,0,1-.49-1.21,3.78,3.78,0,0,1,0-.95V114.4a7.78,7.78,0,0,1,1.6-4.87q18.12-24.78,36.17-49.61a4.42,4.42,0,0,1,3.89-2.26c7.83.09,15.67,0,23.51.06,2,0,2.29.35,2.36,2.18.06,1.28,0,2.56,0,3.84V211.05c0,6.58.68,5.85-5.9,5.88s-13.11,0-19.67,0a22.88,22.88,0,0,1-2.87-.12,1.24,1.24,0,0,1-1.22-1.22c-.08-1.44-.12-2.87-.12-4.31v-95Z" transform="translate(0 0)" fill="#ea5e40"/><path d="M438.36,161.69a69.27,69.27,0,0,1-5.62-7.26c-1.82-2.43-3.58-4.9-5.37-7.36l-5.07-7-5.07-7-5.08-7c-1.79-2.45-3.55-4.93-5.36-7.36-1.68-2.24-3.19-4.61-5.63-7.36-.08,2.41-.19,3.94-.19,5.47v98.32a1.61,1.61,0,0,1-1.46,1.73,1,1,0,0,1-.35,0H373.27c-1.63,0-2-.38-2-1.94-.06-1.27,0-2.56,0-3.83V63.38c0-6.48-.6-5.69,5.52-5.72,6.55,0,13.11.08,19.66-.06a4.68,4.68,0,0,1,4.36,2.26c3.59,5.26,7.38,10.41,11.19,15.58l24.83,34.1a8.34,8.34,0,0,1,2,5.21c-.1,15-.06,30.05-.07,45.08C438.66,160.46,438.52,161.08,438.36,161.69Z" transform="translate(0 0)" fill="#fff"/><path d="M392.06,42.51A20.93,20.93,0,0,1,371,21.72v-.6a21.21,21.21,0,0,1,42.42.18A20.87,20.87,0,0,1,392.9,42.51Q392.48,42.53,392.06,42.51Z" transform="translate(0 0)" fill="#fff"/><path d="M493.24,42.47c-11.75.44-21.35-9.8-21.31-21.14C472,11.64,479.49.19,493.32.12a21.25,21.25,0,0,1,21.07,21C514.51,33.37,504.35,42.86,493.24,42.47Z" transform="translate(0 0)" fill="#ea5e40"/><path d="M351.74,152.34a52.66,52.66,0,0,0-44.67-39.4c-11.59-1.44-21.89.94-30.92,8.42-.58.48-1.07,1.23-2.39.87a31.78,31.78,0,0,1-.11-4.47V55.4c-.07-2.31-.24-2.53-2.43-2.54q-9.35-.06-18.71,0c-6.69,0-5.89-.83-5.89,5.81V214.11c.07,2.69.14,2.83,2.62,2.84h22.07c2.17,0,2.27-.17,2.35-2.58,0-1.38,0-2.77.07-4,1.53-.45,2,.64,2.68,1.2a30.43,30.43,0,0,0,14.64,6.7,55,55,0,0,0,18.59-.14,53,53,0,0,0,43.08-61.34h0C352.46,155.3,352.13,153.81,351.74,152.34Zm-51.52,40.37c-14.25.18-26.58-11.72-26.48-27.15.09-15.22,12.61-26.85,26.39-26.8,14.2.05,26.2,12.38,26.21,27,.32,12.41-9.73,26.74-26.12,27Z" transform="translate(0 0)" fill="#fff"/><path d="M177.41,112.3c-30.47,0-53.8,23.83-53.85,53.34,0,27.73,21.3,53.47,53.63,53.7,30.44.22,53.7-24.66,53.65-53.72C230.79,136.91,207.77,112.19,177.41,112.3Zm1.3,81.28a25.43,25.43,0,0,1-21.06-8.52c-14.9-16-6.92-40.83,12.49-46.26,13.8-3.86,28.62,4.24,33.1,18.19a24.22,24.22,0,0,1,1.28,8.23,27.48,27.48,0,0,1-25.81,28.36Z" transform="translate(0 0)" fill="#fff"/><path d="M633,156.05c-1.88-10.46-6.09-19.82-13.41-27.63-13.14-14-29.24-19.37-47.84-14.5-16.89,4.43-28.31,15.6-34.28,32a55.85,55.85,0,0,0-1.94,33c5.07,20.56,17.68,33.88,38.33,39.28a36.81,36.81,0,0,0,10.45,1.15,55.83,55.83,0,0,0,26.88-7.71,51.14,51.14,0,0,0,11.51-9.47c-6.2-5.45-12.11-10.77-18.33-15.82-1.5,1.13-2.76,2.1-4,3a36.9,36.9,0,0,1-11,5.78,19.54,19.54,0,0,1-13.15-.38,23.52,23.52,0,0,1-6.2-3.58c-6.14-4.82-10.44-12.65-11-20,1.69-.67,3.47-.36,5.2-.36h67.12c1.64-.07,2.11-.45,2.14-1.91A61.35,61.35,0,0,0,633,156.05Zm-26.94-3.75c-4.33.58-40.56.53-44.26-.07,0-.3-.21-.67-.09-.9,3.83-7.87,9.66-13.32,18.42-15.36a18.34,18.34,0,0,1,10.78,1c7.09,2.66,12,7.72,15.26,14.43.14.23,0,.6-.08.9Z" transform="translate(0 0)" fill="#ea5e40"/></g></g></g></g></svg>