<svg width="569" height="268" viewBox="0 0 569 268" fill="none" xmlns="http://www.w3.org/2000/svg">
<path d="M127.133 259.964C124.284 259.964 121.704 259.346 119.392 258.109C117.107 256.846 115.306 255.112 113.989 252.908C112.699 250.704 112.054 248.217 112.054 245.449C112.054 242.68 112.712 240.194 114.029 237.989C115.347 235.785 117.147 234.065 119.432 232.828C121.744 231.565 124.324 230.933 127.174 230.933C129.485 230.933 131.595 231.337 133.504 232.143C135.412 232.949 137.025 234.119 138.342 235.651L134.955 238.836C132.913 236.632 130.399 235.53 127.416 235.53C125.48 235.53 123.747 235.96 122.214 236.82C120.682 237.653 119.486 238.823 118.626 240.328C117.766 241.833 117.336 243.54 117.336 245.449C117.336 247.357 117.766 249.064 118.626 250.569C119.486 252.075 120.682 253.257 122.214 254.117C123.747 254.951 125.48 255.367 127.416 255.367C130.399 255.367 132.913 254.252 134.955 252.021L138.342 255.246C137.025 256.779 135.399 257.948 133.464 258.754C131.555 259.561 129.445 259.964 127.133 259.964Z" fill="#005266"/>
<path d="M142.881 229.643H147.921V259.561H142.881V229.643Z" fill="#005266"/>
<path d="M154.536 238.03H159.576V259.561H154.536V238.03ZM157.076 234.482C156.162 234.482 155.396 234.199 154.778 233.635C154.16 233.044 153.85 232.318 153.85 231.458C153.85 230.597 154.16 229.885 154.778 229.321C155.396 228.729 156.162 228.434 157.076 228.434C157.99 228.434 158.756 228.716 159.374 229.28C159.993 229.818 160.302 230.503 160.302 231.337C160.302 232.224 159.993 232.976 159.374 233.595C158.783 234.186 158.017 234.482 157.076 234.482Z" fill="#005266"/>
<path d="M176.069 259.843C173.838 259.843 171.836 259.372 170.062 258.432C168.288 257.491 166.903 256.187 165.909 254.521C164.914 252.827 164.417 250.919 164.417 248.795C164.417 246.672 164.914 244.777 165.909 243.11C166.903 241.444 168.274 240.14 170.021 239.199C171.795 238.258 173.811 237.788 176.069 237.788C178.193 237.788 180.048 238.218 181.633 239.078C183.246 239.938 184.456 241.175 185.262 242.788L181.392 245.045C180.773 244.051 179.994 243.312 179.053 242.828C178.139 242.317 177.131 242.062 176.029 242.062C174.147 242.062 172.588 242.68 171.352 243.916C170.115 245.126 169.497 246.752 169.497 248.795C169.497 250.838 170.102 252.478 171.312 253.714C172.548 254.924 174.12 255.529 176.029 255.529C177.131 255.529 178.139 255.287 179.053 254.803C179.994 254.292 180.773 253.54 181.392 252.545L185.262 254.803C184.429 256.416 183.206 257.666 181.593 258.553C180.007 259.413 178.166 259.843 176.069 259.843Z" fill="#005266"/>
<path d="M198.212 250.327L194.462 253.876V259.561H189.422V229.643H194.462V247.707L204.905 238.03H210.953L201.962 247.061L211.8 259.561H205.671L198.212 250.327Z" fill="#005266"/>
<path d="M247.85 260.004L244.302 256.577C241.668 258.835 238.509 259.964 234.827 259.964C232.865 259.964 231.104 259.641 229.545 258.996C227.986 258.351 226.763 257.464 225.876 256.335C224.989 255.179 224.545 253.876 224.545 252.424C224.545 250.677 225.056 249.145 226.077 247.828C227.099 246.484 228.765 245.166 231.077 243.876C229.948 242.747 229.142 241.699 228.658 240.731C228.174 239.737 227.932 238.715 227.932 237.667C227.932 235.678 228.671 234.078 230.15 232.869C231.655 231.632 233.644 231.014 236.117 231.014C238.402 231.014 240.23 231.579 241.601 232.708C242.972 233.81 243.657 235.315 243.657 237.223C243.657 238.675 243.2 239.965 242.286 241.094C241.399 242.223 239.934 243.365 237.891 244.521L243.98 250.327C244.652 249.01 245.176 247.424 245.552 245.57L249.624 246.9C249.087 249.4 248.24 251.55 247.084 253.351L250.632 256.738L247.85 260.004ZM236.117 234.603C235.015 234.603 234.141 234.885 233.496 235.449C232.851 235.987 232.529 236.699 232.529 237.586C232.529 238.231 232.703 238.85 233.053 239.441C233.402 240.005 234.074 240.785 235.069 241.78C236.682 240.892 237.797 240.126 238.415 239.481C239.06 238.809 239.383 238.084 239.383 237.304C239.383 236.471 239.087 235.812 238.496 235.328C237.932 234.844 237.139 234.603 236.117 234.603ZM235.19 255.851C237.528 255.851 239.571 255.139 241.318 253.714L233.859 246.578C232.246 247.465 231.104 248.325 230.432 249.158C229.787 249.964 229.464 250.878 229.464 251.9C229.464 253.083 229.988 254.037 231.037 254.763C232.085 255.488 233.469 255.851 235.19 255.851Z" fill="#005266"/>
<path d="M263.592 267.665C261.469 267.665 259.856 267.248 258.754 266.415L260.205 262.665C260.958 263.23 261.939 263.512 263.149 263.512C264.089 263.512 264.802 263.216 265.285 262.625C265.796 262.06 266.052 261.214 266.052 260.085V238.03H271.092V259.964C271.092 262.356 270.433 264.238 269.116 265.609C267.799 266.98 265.957 267.665 263.592 267.665ZM268.551 234.482C267.637 234.482 266.871 234.199 266.253 233.635C265.635 233.044 265.326 232.318 265.326 231.458C265.326 230.597 265.635 229.885 266.253 229.321C266.871 228.729 267.637 228.434 268.551 228.434C269.465 228.434 270.231 228.716 270.85 229.28C271.468 229.818 271.777 230.503 271.777 231.337C271.777 232.224 271.468 232.976 270.85 233.595C270.258 234.186 269.492 234.482 268.551 234.482Z" fill="#005266"/>
<path d="M287.378 259.843C285.2 259.843 283.238 259.372 281.491 258.432C279.744 257.491 278.373 256.187 277.378 254.521C276.411 252.827 275.927 250.919 275.927 248.795C275.927 246.672 276.411 244.777 277.378 243.11C278.373 241.444 279.744 240.14 281.491 239.199C283.238 238.258 285.2 237.788 287.378 237.788C289.582 237.788 291.558 238.258 293.305 239.199C295.052 240.14 296.409 241.444 297.377 243.11C298.372 244.777 298.869 246.672 298.869 248.795C298.869 250.919 298.372 252.827 297.377 254.521C296.409 256.187 295.052 257.491 293.305 258.432C291.558 259.372 289.582 259.843 287.378 259.843ZM287.378 255.529C289.232 255.529 290.765 254.91 291.974 253.674C293.184 252.437 293.789 250.811 293.789 248.795C293.789 246.779 293.184 245.153 291.974 243.916C290.765 242.68 289.232 242.062 287.378 242.062C285.523 242.062 283.991 242.68 282.781 243.916C281.598 245.153 281.007 246.779 281.007 248.795C281.007 250.811 281.598 252.437 282.781 253.674C283.991 254.91 285.523 255.529 287.378 255.529Z" fill="#005266"/>
<path d="M315.623 237.788C317.72 237.788 319.588 238.245 321.228 239.159C322.894 240.073 324.198 241.363 325.139 243.029C326.079 244.696 326.55 246.618 326.55 248.795C326.55 250.972 326.079 252.908 325.139 254.601C324.198 256.268 322.894 257.558 321.228 258.472C319.588 259.386 317.72 259.843 315.623 259.843C314.145 259.843 312.787 259.588 311.551 259.077C310.341 258.566 309.32 257.8 308.486 256.779V259.561H303.688V229.643H308.728V240.651C309.589 239.71 310.597 238.997 311.752 238.514C312.935 238.03 314.225 237.788 315.623 237.788ZM315.059 255.529C316.913 255.529 318.432 254.91 319.615 253.674C320.824 252.437 321.429 250.811 321.429 248.795C321.429 246.779 320.824 245.153 319.615 243.916C318.432 242.68 316.913 242.062 315.059 242.062C313.849 242.062 312.76 242.344 311.793 242.908C310.825 243.446 310.059 244.226 309.494 245.247C308.93 246.268 308.648 247.451 308.648 248.795C308.648 250.139 308.93 251.322 309.494 252.343C310.059 253.365 310.825 254.158 311.793 254.722C312.76 255.26 313.849 255.529 315.059 255.529Z" fill="#005266"/>
<g clip-path="url(#clip0_3002_20572)">
<path d="M0.837891 230.174C1.46471 229.628 1.91244 229.173 2.44971 228.718C8.62835 224.167 14.7174 219.707 20.8961 215.157C22.9556 213.609 23.0452 213.609 24.8361 215.43C28.7761 219.343 33.7011 221.983 39.0738 222.984C44.6256 224.167 50.3565 223.348 55.3711 220.617C65.2211 215.521 70.7729 207.329 71.5788 196.044C71.6684 194.77 71.6684 193.404 71.6684 192.13V84.7344C71.6684 79.3646 72.0265 79.8197 66.8329 79.8197H37.9993C36.9247 79.8197 36.477 79.0915 36.477 78.0904V54.1539C36.5665 53.1527 36.9247 52.5156 37.9993 52.5156H96.0247C96.562 52.5156 97.1888 52.5156 97.7261 52.6066C98.3529 52.6066 98.8006 53.0617 98.8006 53.6988C98.8902 54.6999 98.8902 55.7011 98.8902 56.7022V193.404C98.8902 206.692 95.3979 218.706 87.3388 229.173C78.0261 241.369 65.6688 248.286 50.6252 250.197C39.0738 251.744 27.2538 249.56 16.9561 244.008C10.6879 240.549 5.22562 235.817 0.837891 230.174Z" fill="#005266"/>
<path d="M433.969 101.936C432.268 102.482 431.909 103.665 431.283 104.575C421.97 117.499 412.747 130.423 403.523 143.438C402.897 144.257 402.359 145.076 401.733 145.895C401.464 146.168 401.106 146.715 400.748 146.259C400.479 145.895 400.389 145.531 400.3 145.167C400.3 144.894 400.3 144.621 400.3 144.348V104.211C400.3 102.573 400.748 101.026 401.733 99.7516C412.568 84.7344 423.313 69.6262 434.148 54.6089C434.864 53.3347 436.208 52.5156 437.64 52.5156C444.625 52.6066 451.699 52.5156 458.683 52.6066C460.474 52.6066 460.743 52.8797 460.833 54.6089C460.922 55.7921 460.833 56.9753 460.833 58.0674V192.13C460.833 198.137 461.459 197.5 455.549 197.5C449.639 197.5 443.819 197.5 437.909 197.5C437.013 197.5 436.208 197.5 435.312 197.409C434.685 197.409 434.238 196.863 434.238 196.317C434.148 195.043 434.148 193.677 434.148 192.403V105.941L433.969 101.936Z" fill="#EA5E40"/>
<path d="M393.405 147.17C391.615 145.076 389.913 142.892 388.391 140.526C386.779 138.341 385.167 136.066 383.555 133.791L378.989 127.42L374.422 121.049L369.855 114.678C368.243 112.493 366.721 110.218 365.02 107.943C363.497 105.941 362.154 103.756 360.005 101.208C359.915 103.392 359.826 104.757 359.826 106.214V195.68C359.915 196.499 359.289 197.227 358.483 197.227C358.393 197.227 358.304 197.227 358.125 197.227H334.932C333.5 197.227 333.141 196.863 333.141 195.498C333.052 194.315 333.141 193.131 333.141 192.039V57.7034C333.141 51.7875 332.604 52.5156 338.066 52.5156C343.887 52.5156 349.797 52.6066 355.707 52.4246C357.319 52.3336 358.841 53.0617 359.647 54.5179C362.87 59.3416 366.273 63.9833 369.676 68.716L391.883 99.7516C392.958 101.117 393.674 102.755 393.674 104.484C393.585 118.136 393.585 131.788 393.585 145.531C393.674 146.077 393.495 146.624 393.405 147.17Z" fill="#005266"/>
<path d="M351.945 38.6807C341.558 38.7717 333.14 30.3075 333.051 19.7499C333.051 19.5679 333.051 19.3859 333.051 19.2038C333.051 8.55526 341.647 0 352.124 0C362.601 0 371.108 8.73729 371.018 19.3859C371.197 29.8524 362.959 38.4987 352.661 38.6807C352.393 38.6807 352.124 38.6807 351.945 38.6807Z" fill="#005266"/>
<path d="M442.475 38.6813C431.909 39.0454 423.313 29.762 423.402 19.4775C423.492 10.6492 430.208 0.273631 442.565 0.182617C452.952 0.273631 461.28 8.73788 461.459 19.2954C461.548 30.3991 452.504 39.0454 442.475 38.6813Z" fill="#EA5E40"/>
<path d="M315.769 138.614C311.023 119.41 295.084 105.121 275.742 102.755C265.355 101.481 256.132 103.574 248.072 110.4C247.535 110.855 247.087 111.492 245.923 111.219C245.834 109.854 245.744 108.489 245.834 107.124V50.4222C245.744 48.3289 245.655 48.1469 243.685 48.1469C238.133 48.1469 232.492 48.1469 226.94 48.1469C220.94 48.1469 221.657 47.4188 221.657 53.4256V194.861C221.746 197.318 221.746 197.409 223.985 197.409H243.774C245.744 197.409 245.834 197.227 245.923 195.043C245.923 193.768 245.923 192.494 246.013 191.402C247.356 191.038 247.804 191.948 248.431 192.494C252.192 195.68 256.669 197.773 261.504 198.592C267.056 199.502 272.608 199.502 278.16 198.501C303.949 193.95 321.231 168.922 316.754 142.71C316.485 141.345 316.127 139.979 315.769 138.614ZM269.653 175.384C256.937 175.566 245.834 164.735 245.923 150.719C246.013 136.885 257.206 126.236 269.563 126.327C282.279 126.418 293.024 137.613 293.024 150.901C293.382 162.187 284.338 175.202 269.653 175.384Z" fill="#005266"/>
<path d="M159.691 102.209C132.38 102.209 111.516 123.87 111.516 150.719C111.516 175.93 130.589 199.412 159.512 199.594C186.734 199.776 207.598 177.113 207.508 150.719C207.508 124.599 186.913 102.118 159.691 102.209ZM160.855 176.203C153.692 176.749 146.707 173.928 141.961 168.467C128.619 153.905 135.782 131.334 153.154 126.328C165.512 122.778 178.764 130.15 182.794 142.892C183.6 145.259 183.958 147.807 183.958 150.355C184.406 163.916 174.197 175.384 160.855 176.203Z" fill="#005266"/>
<path d="M567.661 142.071C565.959 132.515 562.198 124.05 555.662 116.951C543.931 104.209 529.514 99.2946 512.859 103.754C497.726 107.759 487.517 117.952 482.145 132.879C478.563 142.526 478.026 152.993 480.443 162.913C485.01 181.662 496.293 193.767 514.739 198.681C517.784 199.5 520.918 199.864 524.142 199.682C532.648 199.5 540.887 197.043 548.229 192.674C552.08 190.308 555.572 187.396 558.527 184.028C552.975 179.113 547.692 174.199 542.14 169.648C540.797 170.649 539.633 171.559 538.558 172.378C535.603 174.654 532.29 176.474 528.708 177.657C524.858 178.931 520.739 178.84 516.888 177.293C514.918 176.474 513.038 175.382 511.337 174.017C505.874 169.648 502.024 162.549 501.487 155.814C503.009 155.177 504.621 155.45 506.143 155.45H566.228C567.661 155.359 568.108 155.086 568.108 153.721C568.377 149.807 568.198 145.893 567.661 142.071ZM543.573 138.612C539.722 139.158 507.217 139.067 503.904 138.521C503.904 138.248 503.725 137.884 503.815 137.702C507.217 130.512 512.501 125.597 520.291 123.686C523.515 122.958 526.917 123.322 529.962 124.596C536.32 127.054 540.707 131.604 543.662 137.702C543.752 137.975 543.662 138.339 543.573 138.612Z" fill="#EA5E40"/>
</g>
<defs>
<clipPath id="clip0_3002_20572">
<rect width="567.36" height="250.56" fill="white" transform="translate(0.839844)"/>
</clipPath>
</defs>
</svg>
